# xmcd
#
# Track frame offsets:
#  151
#  20751
#  37466
#  53434
#  65933
#  78759
#  93568
#  109658
#  125509
#  141514
#  165311
#  181293
#  196275
#  207697
#
# Disc length: 2931 seconds
#
# Revision: 0
# Processed by: cddbd v1.5.1PL2 Copyright (c) Steve Scherf et al.
# Submitted via: Collectorz.com_Music_Collector 6.9
#
DISCID=d00b710e
DTITLE=Jack Cook and His Phantoms Of Soul - Still In Search Of A Groove
DYEAR=2001
DGENRE=Blues
TTITLE0=Bricks In My Pillow
TTITLE1=Saturday Blues
TTITLE2=Down South
TTITLE3=Papa's On The Housetop
TTITLE4=Take Me To That Land Of Jazz
TTITLE5=Mama Didn't Raise No Crazy Kids
TTITLE6=Peach Orchard Mama
TTITLE7=Raggin' The Blues
TTITLE8=West Helena, AK
TTITLE9=Mailman
TTITLE10=Root Hog Or Die
TTITLE11=Highway 99
TTITLE12=About To Lose My Mind
TTITLE13=Coal Man
EXTD=
EXTT0=
EXTT1=
EXTT2=
EXTT3=
EXTT4=
EXTT5=
EXTT6=
EXTT7=
EXTT8=
EXTT9=
EXTT10=
EXTT11=
EXTT12=
EXTT13=
PLAYORDER=
